# xmcd
#
# Track frame offsets:
#  150
#  24006
#  45118
#  64744
#  82512
#  98463
#  111651
#  121416
#  132765
#  154659
#  180630
#  194840
#  214036
#  233443
#  247055
#
# Disc length: 3484 seconds
#
# Revision: 0
# Processed by: cddbd v1.5.1PL0 Copyright (c) Steve Scherf et al.
# Submitted via: Collectorz.com_Music_Collector 6.9
#
DISCID=b60d9a0f
DTITLE=Dutch Tilders - I'm A Bluesman
DYEAR=1999
DGENRE=Blues
TTITLE0=Going Back To The City
TTITLE1=I'm A Bluesman
TTITLE2=Folk Song Medley
TTITLE3=Almost Lost My Mind
TTITLE4=Imagination Blues
TTITLE5=Blueberry Hill
TTITLE6=Grasshopper Loose In Qld
TTITLE7=Bill Bailey
TTITLE8=Nobody Knows When You're Down and Out
TTITLE9=Trouble In Mind
TTITLE10=If You See Me Comin'
TTITLE11=Chimney Sweep
TTITLE12=In The Evening When The Sun Goes Down
TTITLE13=Hey Baby Hey
TTITLE14=Baby What's Wrong
EXTD=
EXTT0=
EXTT1=
EXTT2=
EXTT3=
EXTT4=
EXTT5=
EXTT6=
EXTT7=
EXTT8=
EXTT9=
EXTT10=
EXTT11=
EXTT12=
EXTT13=
EXTT14=
PLAYORDER=
